{"title":"Gogglebox Au - S04E04","uid":15897799,"size":386837740,"categoryP":"video","categoryS":"tv_shows","magnet":"?xt=urn:btih:db8e101acd82b25baf24b736a3ab76658368fe48&amp;dn=Gogglebox+Au+-+S04E04&amp;tr=udp%3A%2F%2Ftracker.leechers-paradise.org%3A6969&amp;tr=udp%3A%2F%2Fzer0day.ch%3A1337&amp;tr=udp%3A%2F%2Fopen.demonii.com%3A1337&amp;tr=udp%3A%2F%2Ftracker.coppersurfer.tk%3A6969&amp;tr=udp%3A%2F%2Fexodus.desync.com%3A6969","seeders":5,"leechers":3,"uploader":"Bullrout","files":1,"time":1474977605,"description":"Gogglebox Au - S04E04\r\n\r\nThe Goggleboxers are on their couches discussing the week's best TV, including Australia's Next Top Model, Doctor Doctor, The Chase, The Bachelor Finale and the documentary Why are we Getting so Fat?\r\n\r\nComplete name : Gogglebox Au - S04E05.mp4\r\nFormat : MPEG-4\r\nFormat profile : Base Media / Version 2\r\nCodec ID : mp42 (mp42/isom/avc1)\r\nFile size : 369 MiB\r\nDuration : 47 min 4 s\r\nOverall bit rate mode : Variable\r\nOverall bit rate : 1 096 kb/s\r\n\r\nVideo\r\nID : 2\r\nFormat : AVC\r\nFormat/Info : Advanced Video Codec\r\nFormat profile :   \r\nFormat settings, CABAC : Yes\r\nFormat settings, ReFrames : 3 frames\r\nCodec ID : avc1\r\nCodec ID/Info : Advanced Video Coding\r\nDuration : 47 min 4 s\r\nBit rate mode : Variable\r\nBit rate : 964 kb/s\r\nMaximum bit rate : 1 000 kb/s\r\nWidth : 720 pixels\r\nHeight : 404 pixels\r\nDisplay aspect ratio : 16:9\r\nOriginal display aspect ratio : 16:9\r\nFrame rate mode : Constant\r\nFrame rate : 25.000 FPS\r\nStandard : PAL\r\nColor space : YUV\r\nChroma subsampling : 4:2:0\r\nBit depth : 8 bits\r\nScan type : Progressive\r\nBits/(Pixel*Frame) : 0.133\r\nStream size : 325 MiB (88%)\r\nWriting library : x264 core 112\r\nColor range : Limited\r\nColor primaries : BT.601 PAL\r\nTransfer characteristics : BT.470 System B, BT.470 System G\r\nMatrix coefficients : BT.601\r\n\r\nAudio\r\nID : 1\r\nFormat : AAC\r\nFormat/Info : Advanced Audio Codec\r\nFormat profile : LC\r\nCodec ID : 40\r\nDuration : 47 min 4 s\r\nBit rate mode : Variable\r\nBit rate : 128 kb/s\r\nMaximum bit rate : 576 kb/s\r\nChannel(s) : 2 channels\r\nChannel positions : Front: L R\r\nSampling rate : 48.0 kHz\r\nFrame rate : 46.875 FPS (1024 spf)\r\nCompression mode : Lossy\r\nStream size : 43.1 MiB (12%)","torrent":{"xt":"urn:btih:db8e101acd82b25baf24b736a3ab76658368fe48","amp;dn":"Gogglebox+Au+-+S04E04","amp;tr":["udp%3A%2F%2Ftracker.leechers-paradise.org%3A6969","udp%3A%2F%2Fzer0day.ch%3A1337","udp%3A%2F%2Fopen.demonii.com%3A1337","udp%3A%2F%2Ftracker.coppersurfer.tk%3A6969","udp%3A%2F%2Fexodus.desync.com%3A6969"],"infoHash":"db8e101acd82b25baf24b736a3ab76658368fe48","infoHashBuffer":{"type":"Buffer","data":[219,142,16,26,205,130,178,91,175,36,183,54,163,171,118,101,131,104,254,72]},"announce":[],"urlList":[]}}